<?xml version="1.0" encoding="UTF-8" standalone="no"?>
<svg xmlns:svg="http://www.w3.org/2000/svg" xmlns="http://www.w3.org/2000/svg" xmlns:xlink="http://www.w3.org/1999/xlink" viewBox="0 0 800 800" width="800" height="800" enable-background="new 0 0 800 800" xml:space="preserve">
    <style type="text/css" >
        .white    {fill: #fff;}
        .mid        {fill: #999;}
        .dark     {fill: #222}
        .vibrant{fill: #F0141E;}
    </style>
    <defs>
        <path id="lft" d="m33.59,49.908997l-15.179001,-20.908997l15.179001,-20.908999l-7.875,20.908999"/>
        <path id="rgt" d="m19.410004,8l15.178993,20.909l-15.178993,20.908997l7.875,-20.908997"/>
	    <path id="fullin" d="m8,15.998047l0,26.003906l36,0l0,-26.003906l-36,0zm3,2.992188l30,0l0,20l-30,0l0,-20zm21.365234,1.996094l2.285156,2.271484l-3.648439,3.652344l2.08008,2.082031l3.640625,-3.640625l2.275391,2.287109l0,-6.646484l-6.632813,-0.005859zm-19.365234,8.003906l0,8l18,0l0,-8l-18,0z" />
        <path id="fullout" d="m7.992397,15.998047l0,26.001953l36,0l0,-26.001953l-36,0zm3,2.992188l30,0l0,20l-30,0l0,-20zm2,2l0,16l26,0l0,-16l-26,0zm22.917969,0.998047l2.080078,2.083984l-3.648438,3.650391l2.285156,2.271484l-6.632813,-0.005859l0,-6.644531l2.275394,2.287107l3.640625,-3.642578l-0.000004,0.000002z"/>
        <path id="fullpageview" d="m12.033265,11l0,8l26.000022,0l0,-8l-26.000022,0zm22.000022,11l0,15l4,0l0,-15l-4,0zm-22.009822,0.0098l0,14.976498l19.002015,0l0,-14.976498l-19.002015,0zm1.009801,0.9902l17.000013,0l-0.076199,0.257799l0.076199,12.742201l-17.000013,0l0,-4.8223l8.779318,0l0,3.8321l5.216799,-5.507799l-5.218801,-5.511801l0.002005,3.830099l-8.77932,0l0,-4.820299l0,0l0.000001,0l0.000001,0l-0.000001,0l-0.000001,0zm-1,17l0,7l26.000025,0l0,-7l-26.000025,0z"/>
        <path id="panelview" d="m12.305694,10.897652l0,7.203125l25.716798,0l0,-7.203125l-25.716798,0zm0.001953,10.570311l0,14.789061l18.16796,0l0,-14.789061l-18.16796,0zm20.753907,0l0,14.789061l4.960938,0l0,-14.789061l-4.960938,0zm-20.755862,18.269537l0,7.160156l25.7168,0l0,-7.160156l-25.7168,0z"/>
        <path id="zoomout" d="m20.720703,12c-7.071991,0 -12.80664,5.709911 -12.80664,12.75391c0,7.042999 5.73465,12.753899 12.80664,12.753899c2.761993,0 5.312347,-0.870609 7.402344,-2.349609l10.136719,10.09766c0.933014,0.926003 2.3815,0.9963 3.228516,0.154297c0.845001,-0.842003 0.776703,-2.286888 -0.154297,-3.212887l-10.142578,-10.10157c1.471008,-2.076 2.337891,-4.607788 2.337891,-7.341789c0,-7.043999 -5.73361,-12.753909 -12.808594,-12.753909l0,-0.000001zm0.003906,4.255859c4.705994,0 8.535156,3.813 8.535156,8.5c0,4.688 -3.829165,8.5 -8.535156,8.5c-4.705994,0 -8.535156,-3.813 -8.535156,-8.5c0,-4.687 3.829163,-8.5 8.535156,-8.5zm-5.658203,6.81641l0,3.162109l11.125,0l0,-3.162109l-11.125,0z" />
        <path id="zoomin" d="m20.954201,12c-7.070019,0 -12.806644,5.709908 -12.806644,12.753906c0,7.042999 5.733658,12.753906 12.806644,12.753906c2.762001,0 5.312355,-0.870609 7.402336,-2.349609l10.136719,10.097656c0.933029,0.926003 2.385544,0.9963 3.228531,0.154297c0.84697,-0.841003 0.777641,-2.286888 -0.152359,-3.212891l-10.142563,-10.101563c1.471001,-2.076 2.337891,-4.606796 2.337891,-7.341799c0,-7.043999 -5.734571,-12.753905 -12.810555,-12.753905l0,0.000001zm0,4.255859c4.707008,0 8.535149,3.812 8.535149,8.5c0,4.688 -3.82814,8.5 -8.535149,8.5c-4.702,0 -8.531254,-3.813 -8.531254,-8.5c0,-4.688 3.825256,-8.5 8.531254,-8.5zm-1.664066,2.861326l0,3.970705l-3.984374,0l0,3.130857l3.984374,0l0,3.96875l3.146488,0l0,-3.96875l3.990242,0l0,-3.130857l-3.990242,0l0,-3.970705l-3.146488,0z" />
        <path id="pages" d="m15.450333,21l0,6.984375l4.996086,0l0,-6.984375l-4.996086,0zm7.031242,0l0,6.984375l4.998032,0l0,-6.984375l-4.998032,0zm6.972664,0l0,6.984375l4.996094,0l0,-6.984375l-4.996094,0zm-14.003907,9.015625l0,6.984375l4.996087,0l0,-6.984375l-4.996087,0zm7.031241,0l0,6.984375l4.998034,0l0,-6.984375l-4.998034,0zm6.972666,0l0,6.984375l4.996094,0l0,-6.984375l-4.996094,0z" />
        <path id="info" d="m14.902927,19l0,19.998047l20,0l0,-19.998047l-20,0zm9.875,3.998047c0.625,0 1.109375,0.53886 1.109375,1.255859c0,0.68 -0.484009,1.251953 -1.125,1.251953c-0.578003,0 -1.091797,-0.571953 -1.091797,-1.251953c0,-0.716999 0.513428,-1.255859 1.107422,-1.255859zm1.109375,3.386719l0,6.328125c0,1.234001 0.078705,1.322796 1.011719,1.466797l0,0.820316l-4,0l0,-0.820316c0.906006,-0.125 1.001953,-0.196796 1.001953,-1.466797l0,-3.541016c0,-1.181999 -0.109375,-1.233952 -0.859375,-1.376953l0,-0.767578c0.94101,-0.125 1.970703,-0.357578 2.845703,-0.642578z" />
        <path id="help" d="m14.968748,19.000366l0,19.998051l19.999998,0l0,-19.998051l-19.999998,0zm6.146484,5.308596l6.796875,0c0.269012,0 0.519957,0.052307 0.751953,0.154297c0.233002,0.102997 0.438202,0.240051 0.617188,0.414064c0.178009,0.171997 0.314117,0.375277 0.412109,0.613279c0.100006,0.238983 0.144531,0.488008 0.144531,0.75l0.001953,2.445314c0,0.270996 -0.046539,0.522858 -0.144531,0.755856c-0.097992,0.233004 -0.2341,0.436371 -0.412109,0.609375c-0.179993,0.171995 -0.384186,0.310123 -0.617188,0.412107c-0.230989,0.102997 -0.482944,0.152344 -0.751953,0.152344l-3.439453,0c-0.056,0 -0.085939,0.027987 -0.085939,0.083982l0,0.9375l-1.847654,0l0,-0.9375c0,-0.260984 0.052307,-0.510038 0.154297,-0.748047c0.104004,-0.237 0.239105,-0.44223 0.412107,-0.615232c0.174007,-0.171997 0.376406,-0.311068 0.607424,-0.414064c0.234009,-0.102999 0.485806,-0.152348 0.757813,-0.152348l3.439453,0c0.062988,0 0.095703,-0.028992 0.095703,-0.083981l0,-2.447269c0,-0.065001 -0.030701,-0.097651 -0.095703,-0.097651l-6.796875,0l0,-1.832031l0,0.000002l0,0.000002zm1.423828,8.238279l1.847656,0l0,1.832031l-1.847656,0l0,-1.832031z" />
        <path id="left" d="m29.333958,15.466797l-14.007809,13.498047l14.007809,13.498047l0,-5.859375l-8.337891,-7.75l8.337891,-7.810547l0,-5.576172z" />
        <path id="right" d="m19.997562,15.466797l0,5.859375l8.337887,7.75l-8.337887,7.810547l0,5.578125l14.007801,-13.5l-14.007801,-13.498047z" />
        <path id="xclose" d="m25.638,29.49l3.94501,-3.945c0.53601,-0.53699 0.53601,-1.407 0,-1.944l-0.20203,-0.203c-0.53601,-0.536 -1.40601,-0.536 -1.94299,0l-3.94598,3.946l-3.94403,-3.946c-0.53699,-0.536 -1.40698,-0.536 -1.94299,0l-0.20398,0.20399c-0.53802,0.538 -0.53802,1.408 0,1.945l3.94501,3.946l-3.94501,3.94601c-0.53601,0.53699 -0.53601,1.406 0,1.943l0.203,0.202c0.53699,0.537 1.40698,0.537 1.94299,0l3.94501,-3.945l3.94702,3.945c0.53699,0.537 1.40594,0.537 1.94299,0l0.20398,-0.203c0.53601,-0.53799 0.53601,-1.407 0,-1.944l-3.94598,-3.945l-0.00201,-0.002l-0.00001,0z" />

    </defs>

    <use x="25"    y="21" xlink:href="#lft" class="mid" ></use>
    <use x="67"    y="21" xlink:href="#rgt" class="mid" ></use>
    <use x="112" y="21" xlink:href="#fullin" class="mid" ></use>
    <use x="156" y="21" xlink:href="#fullout" class="mid" ></use>
    <use x="201" y="21" xlink:href="#fullpageview" class="mid" ></use>
    <use x="245" y="21" xlink:href="#panelview" class="mid" ></use>
    <use x="289" y="21" xlink:href="#zoomout" class="mid" ></use>
    <use x="333" y="21" xlink:href="#zoomin" class="mid" ></use>
    <use x="377" y="21" xlink:href="#pages" class="mid" ></use>
    <use x="421" y="21" xlink:href="#info" class="mid" ></use>
    <use x="465" y="21" xlink:href="#left" class="mid" ></use>
    <use x="506" y="21" xlink:href="#right" class="mid" ></use>
    <use x="550" y="21" xlink:href="#help" class="mid" ></use>
    <use x="594" y="21" xlink:href="#xclose" class="mid" ></use>

    <use x="25"    y="81" xlink:href="#lft" class="white" ></use>
    <use x="67"    y="81" xlink:href="#rgt" class="white" ></use>
    <use x="112" y="81" xlink:href="#fullin" class="white" ></use>
    <use x="156" y="81" xlink:href="#fullout" class="white" ></use>
    <use x="201" y="81" xlink:href="#fullpageview" class="white" ></use>
    <use x="245" y="81" xlink:href="#panelview" class="white" ></use>
    <use x="289" y="81" xlink:href="#zoomout" class="white" ></use>
    <use x="333" y="81" xlink:href="#zoomin" class="white" ></use>
    <use x="377" y="81" xlink:href="#pages" class="white" ></use>
    <use x="421" y="81" xlink:href="#info" class="white" ></use>
    <use x="465" y="81" xlink:href="#left" class="white" ></use>
    <use x="506" y="81" xlink:href="#right" class="white" ></use>
    <use x="550" y="81" xlink:href="#help" class="white" ></use>
    <use x="594" y="81" xlink:href="#xclose" class="white" ></use>

    <use x="25"    y="141" xlink:href="#lft" class="dark" ></use>
    <use x="67"    y="141" xlink:href="#rgt" class="dark" ></use>
    <use x="112" y="141" xlink:href="#fullin" class="dark" ></use>
    <use x="156" y="141" xlink:href="#fullout" class="dark" ></use>
    <use x="201" y="141" xlink:href="#fullpageview" class="dark" ></use>
    <use x="245" y="141" xlink:href="#panelview" class="dark" ></use>
    <use x="289" y="141" xlink:href="#zoomout" class="dark" ></use>
    <use x="333" y="141" xlink:href="#zoomin" class="dark" ></use>
    <use x="377" y="141" xlink:href="#pages" class="dark" ></use>
    <use x="421" y="141" xlink:href="#info" class="dark" ></use>
    <use x="465" y="141" xlink:href="#left" class="dark" ></use>
    <use x="506" y="141" xlink:href="#right" class="dark" ></use>
    <use x="550" y="141" xlink:href="#help" class="dark" ></use>
    <use x="594" y="141" xlink:href="#xclose" class="dark" ></use>

    <use x="24"    y="201" xlink:href="#lft" class="vibrant" ></use>
    <use x="67"    y="201" xlink:href="#rgt" class="vibrant" ></use>
    <use x="112" y="201" xlink:href="#fullin" class="vibrant" ></use>
    <use x="156" y="201" xlink:href="#fullout" class="vibrant" ></use>
    <use x="201" y="201" xlink:href="#fullpageview" class="vibrant" ></use>
    <use x="245" y="201" xlink:href="#panelview" class="vibrant" ></use>
    <use x="289" y="201" xlink:href="#zoomout" class="vibrant" ></use>
    <use x="333" y="201" xlink:href="#zoomin" class="vibrant" ></use>
    <use x="377" y="201" xlink:href="#pages" class="vibrant" ></use>
    <use x="421" y="201" xlink:href="#info" class="vibrant" ></use>
    <use x="465" y="201" xlink:href="#left" class="vibrant" ></use>
    <use x="506" y="201" xlink:href="#right" class="vibrant" ></use>
    <use x="550" y="201" xlink:href="#help" class="vibrant" ></use>
    <use x="594" y="201" xlink:href="#xclose" class="vibrant" ></use>
</svg>

